<svg xmlns="http://www.w3.org/2000/svg" viewBox="0 0 512 156">
  <path d="M82.4 2.5C50.1 8.3 24.5 33.1 16.4 64.7c-2.8 11-3.2 28.8-.8 39.7 5.6 25.6 23.5 46.5 47.6 55.7 10.3 3.9 15.2 4.8 28 4.8 12.5 0 18.7-1.2 28.8-5.4 5.3-2.2 5.5-2.2 8.5-.5 4.8 2.8 11.5 4 17.3 3.1l5.2-.8V78h-46v25h17.7l.1 25.7.1 25.8-3.7 1.7c-5 2.3-17 3.2-23.7 1.7-18.3-4-32.2-16.2-38.5-33.9-3-8.4-3.7-24.1-1.5-33 6.6-26.2 28.4-43 55-42.3 10 .3 16.5 2 26 6.9l6 3.1 5.5-11.3c3-6.2 5.5-11.7 5.5-12.2 0-1.4-11.6-7.8-19-10.5C124.3 20.4 115.8 18 107 16c-6.1-.6-19.3.2-24.6 1.3zM196 83.5V165h28V83l22-.3 22-.2V58H196v25.5zM281 111.5V165h28v-53.5c0-49.8.1-53.6 1.8-55.8 2.2-2.9 8.3-5.7 12.8-5.7 5.9 0 12.8 4.1 14.9 8.8 1.8 4.1 2 7 2.3 56l.2 51.7h28l-.2-54.2-.3-54.3-2.7-6.5c-3.6-8.5-9.5-14.5-18-18.3-5.6-2.5-7.8-3-15.3-3.1-10.4 0-17.6 2.6-25 9-2.5 2.2-5 4-5.5 4-.6 0-1-4.6-1-10.5V28h-20v83.5zM421.5 56.6c-16 3.9-28.2 14.3-34 29-3 7.6-3 24.2 0 31.8 5.7 14.5 18 25.1 33.6 29 6.7 1.7 20 1.5 27-.3 14.2-3.7 25-12.5 31.6-25.6l2.8-5.5h-14.6c-14.3 0-14.6 0-16.4 2.3-4.8 6.4-8.1 8.6-15 10-6.8 1.4-15.6-.6-20.7-4.6-4.6-3.7-8.3-11-8.8-17.5l-.5-5.2H484v-7c0-15.8-6.3-29.4-17.7-38.2-10.4-8-28.3-11.5-44.8-8.2zm27.3 22.2c4.6 2.3 9.1 6.9 11.1 11.2 1.1 2.4 2.1 5.3 2.1 6.4v2.1h-56.3l1.2-3.6c3.3-9.7 11.8-16.6 22.9-18.5 6.4-.6 14.2.2 19 2.4z" fill="#F26D22"/>
</svg>